<svg xmlns="http://www.w3.org/2000/svg" version="1.1" xmlns:xlink="http://www.w3.org/1999/xlink" width="240.56" height="223.48"><svg id="SvgjsSvg1001" xmlns="http://www.w3.org/2000/svg" viewBox="0 0 240.56 223.48">
  <defs>
    <style>
      .cls-1, .cls-2, .cls-3 {
        fill: #231f20;
      }

      .cls-4 {
        letter-spacing: 1em;
      }

      .cls-5 {
        letter-spacing: .99em;
      }

      .cls-6 {
        letter-spacing: .98em;
      }

      .cls-2 {
        stroke: #231f20;
        stroke-miterlimit: 10;
        stroke-width: .1px;
      }

      .cls-3 {
        font-family: Aabak-Light, Aabak;
        font-size: 20.34px;
        font-weight: 300;
      }
    </style>
  </defs>
  <text class="cls-3" transform="translate(24.89 170.37) rotate(.61) scale(1.07 1) skewX(-.13)"><tspan class="cls-4" x="0" y="0">H</tspan><tspan class="cls-6" x="26.22" y="0">a</tspan><tspan class="cls-5" x="51.1" y="0">vb</tspan><tspan class="cls-4" x="101.34" y="0">link </tspan></text>
  <g>
    <path class="cls-1" d="M94.93,0c.26.14.52.21.77.42,12.44,9.88-12.38,40.76,5.63,62.76.49-.07.98-.18,1.46-.21,1.37-.07,3.06-.06,4.4.15,0,0,2.35.2,2.35.2.25.02.81.22,1.06.24.42.04,1.01.25,1.43.31.87.12-1.36-.4-.54-.11.33.02.55.28.88.34.17.03.34.07.5.12.44.13,1.09.29,1.54.54.44.24.74.44,1.01.65,1.24.48,2.47,1,3.66,1.58,1.09.53,2.15,1.2,3.15,1.94.07.05.14.1.2.16.6.46,1.14.96,1.63,1.5.03.03.07.05.09.09.07-.57.14-1.14.22-1.72C129.75,26.98,133.05.42,144.77.42v-.42h-49.84Z"></path>
    <path class="cls-1" d="M91.48,0h-8.14C38.23,0,.51,14.83,0,46.99c-.13,12.53,7.26,24.32,22.3,24.32,10.2,0,18.1-6.57,18.1-14.62-.13-8.46-7.52-13.99-16.44-13.99-7.39,0-14.15,3.13-16.82,8.67-1.02,1.35-3.06,1.25-3.31-.21-.38-1.67-.64-3.55-.51-5.22C3.82,29.65,18.09,11.49,47.15,6.37c2.55-.62,4.59.42,5.74,2.61,1.53,4.18.63,23.49-3.95,58.68-5.74,45.52-9.43,78.1-21.16,78.1v.42h51.59c-9.62-4.27-21.05-29.28-5.74-82.35C78.18,29.11,84.61,3.76,91.48,0Z"></path>
    <path class="cls-1" d="M122.52,83.97c-.99-.09-1.88-.44-2.68-.98-.06.06-.09.12-.15.18l-17.26-7.25s-.02.07-.03.11c0,.02-.02.05-.03.07,0,.06,0,.13-.01.19-.01.13-.03.25-.07.37-.01.04-.03.08-.05.12l-17.35,69.39h41.14v-.42c-9.37,0-8.02-24.57-3.52-61.79Z"></path>
  </g>
  <g>
    <path class="cls-2" d="M209.58,177.19c-2.65-.43-5.29-.98-7.92-1.19-3.97-.31-7.82-.31-11.77.09-4.8.49-10.52,1.09-15.34-.2,12.02,8.21,7.04,22.31-10.37,30.44-6.44,3.28-8.99,1-10.18-11.28-.1-.33-.18-.66-.27-1-.04-.09-.08-.18-.11-.28-.08-.23-.07-.47-.14-.71-.18-.75-.39-1.5-.56-2.24-.25-1.06-.52-2.12-.62-3.19-.02-.22.04-.43.04-.65-.53-2.13-.32-5.85.31-10.2-.12-.01-.23,0-.35-.02-.25.06-.47.21-.72.25-.05.02-.1.05-.15.07-3.37,1.16-7.09,1.03-10.63,1.16-2.61.09-5.72,0-8.06-1.25-.27-.03-.55-.03-.83-.07-.63-.09-1.26-.21-1.87-.37-.8-.21-1.6-.46-2.35-.79-3.84,26.85-8.07,47.26-17.06,47.26v.39h53.22c30.27,0,43.73-13.62,46.25-33.75.63-4.8.3-8.83-.51-12.49Z"></path>
    <path class="cls-2" d="M169.85,85.8c-47.94,0-111.02-52.09-111.02-15.22l9.04,5.77c11.81-19.03,57.33,3.1,68.13,13.63-.13-.01-.24-.11-.38-.07,2.13,7.07-.58,29.9-4.85,62.89,11.02.07,21.94.34,32.98,1.2.08,0,.16,0,.24.01,1.12-.11,2.24-.18,3.35-.27-.01-.11.02-.24.1-.24,27.99-2.14,45.53-14.01,48.18-34.05,3.48-27.72-19.22-33.65-45.77-33.65ZM159.13,152.32c-3.44.29-3.09-.87-2.58-3.89,8.6-46.49,11.37-59.92,22.87-60.4,9.17-.38,3.13,15.29,6.36,26.17,7.59,25.58-14.37,38.05-26.64,38.13Z"></path>
    <path class="cls-2" d="M138.03,94.2c-.07-.81-.25-1.66-.52-2.44.73,1.04.98,1.89.52,2.44Z"></path>
  </g>
</svg><style>@media (prefers-color-scheme: light) { :root { filter: none; } }
@media (prefers-color-scheme: dark) { :root { filter: none; } }
</style></svg>